<svg xmlns="http://www.w3.org/2000/svg" fill="#666" viewBox="0 0 3299 3299" shape-rendering="geometricPrecision" text-rendering="geometricPrecision" image-rendering="optimizeQuality" fill-rule="evenodd" clip-rule="evenodd"><path d="M1650 0c456 0 868 185 1166 483 299 299 483 711 483 1166 0 456-185 868-483 1166-299 299-711 483-1166 483-456 0-868-185-1166-483C185 2516 1 2104 1 1649c0-456 185-868 483-1166C783 184 1195 0 1650 0zm-68 769c0-50 40-90 90-90s90 40 90 90v833l627 372c43 25 57 81 32 123-25 43-81 57-123 32l-667-395c-29-15-49-45-49-80V769zm1107-159c-266-266-633-430-1039-430S877 344 611 610s-430 633-430 1039 164 773 430 1039 633 430 1039 430 773-164 1039-430 430-633 430-1039-164-773-430-1039z" fill-rule="nonzero"/></svg>